#!OML:ASF G:\JayActor3\Patient Classification 1\Patient 1\Session 6\male.ASF
:FULLY-SPECIFIED
:DEGREES
606
root 32.1344 16.2506 -11.2343 -179.611 -31.9183 -175.786
lowerback 1.9752 -2.99159 5.0461
upperback 2.25009 -4.04661 1.51144
thorax 0.975082 -2.00915 -1.21399
lowerneck 7.35837 11.8121 9.70608
upperneck -12.4065 15.9 -9.30616
head -3.34502 7.89866 -4.94329
rclavicle -3.27995e-015 1.0138e-014
rhumerus -37.8905 28.34 -100.612
rradius 78.8067
rwrist 7.70668
rhand -31.6042 -9.7231
rfingers 7.12502
rthumb -4.86652 -39.6472
lclavicle -3.27995e-015 1.0138e-014
lhumerus -40.0221 -3.56809 91.2215
lradius 35.1508
lwrist 9.97487
lhand -43.8833 -17.9614
lfingers 7.12502
lthumb -16.7088 11.3395
rfemur -23.7663 3.40458 30.3981
rtibia 33.2965
rfoot -11.724 -11.6377
rtoes 4.18891
lfemur -0.457369 12.3103 -11.7055
ltibia 55.5754
lfoot 27.7579 4.55696
ltoes 1.01872
607
root 32.0797 16.2389 -11.3262 -180.129 -32.1109 -175.276
lowerback 2.22433 -2.94697 5.46213
upperback 2.35748 -3.98527 1.64748
thorax 0.934172 -1.97948 -1.29493
lowerneck 7.3648 11.7687 9.72104
upperneck -12.4478 15.8342 -9.38092
head -3.35654 7.8691 -4.96959
rclavicle 8.30671e-014 -3.1408e-014
rhumerus -37.5674 28.2879 -100.426
rradius 78.705
rwrist 7.74547
rhand -31.6516 -9.79707
rfingers 7.12502
rthumb -4.91234 -39.7201
lclavicle 8.30671e-014 -3.1408e-014
lhumerus -40.2512 -3.83182 91.3019
lradius 35.7161
lwrist 10.7241
lhand -43.3047 -16.6705
lfingers 7.12502
lthumb -16.1518 12.6765
rfemur -23.021 3.10678 30.9231
rtibia 33.2046
rfoot -12.2742 -11.5537
rtoes 4.23751
lfemur -2.06915 11.9491 -11.1451
ltibia 57.9483
lfoot 26.6837 4.3806
ltoes 0.625949
608
root 32.026 16.2266 -11.4163 -180.641 -32.2662 -174.784
lowerback 2.47725 -2.88494 5.84475
upperback 2.46848 -3.90006 1.78312
thorax 0.899507 -1.93843 -1.35864
lowerneck 7.37664 11.7187 9.73344
upperneck -12.4919 15.7597 -9.45221
head -3.3712 7.83519 -4.99516
rclavicle -3.16316e-014 -1.35174e-014
rhumerus -37.251 28.2345 -100.222
rradius 78.6079
rwrist 7.81248
rhand -31.6252 -9.81766
rfingers 7.12502
rthumb -4.88688 -39.7413
lclavicle -3.16316e-014 -1.35174e-014
lhumerus -40.4718 -4.11718 91.3971
lradius 36.3
lwrist 11.3929
lhand -42.8512 -15.4704
lfingers 7.12502
lthumb -15.715 13.9116
rfemur -22.2766 2.82677 31.4305
rtibia 33.1089
rfoot -12.8196 -11.4857
rtoes 4.27746
lfemur -3.68367 11.6473 -10.6004
ltibia 60.2213
lfoot 25.4437 4.18802
ltoes 0.219196
609
root 31.9741 16.2143 -11.5055 -181.116 -32.3553 -174.337
lowerback 2.72509 -2.79658 6.16105
upperback 2.57216 -3.77914 1.91767
thorax 0.867478 -1.88042 -1.38837
lowerneck 7.40428 11.6609 9.74015
upperneck -12.5367 15.6765 -9.51684
head -3.39056 7.79723 -5.01931
rclavicle 9.32052e-014 -2.74323e-014
rhumerus -36.9566 28.1861 -100.01
rradius 78.5154
rwrist 7.90305
rhand -31.5685 -9.81204
rfingers 7.12502
rthumb -4.83212 -39.7369
lclavicle 9.32052e-014 -2.74323e-014
lhumerus -40.6931 -4.40917 91.5035
lradius 36.8986
lwrist 11.9795
lhand -42.5098 -14.3658
lfingers 7.12502
lthumb -15.3862 15.0417
rfemur -21.5536 2.60772 31.9005
rtibia 33.0164
rfoot -13.3479 -11.4364
rtoes 4.30065
lfemur -5.30852 11.4317 -10.0953
ltibia 62.3837
lfoot 24.041 4.06229
ltoes -0.0538481
610
root 31.9231 16.2024 -11.5937 -181.562 -32.4459 -173.934
lowerback 2.96169 -2.70472 6.42207
upperback 2.67517 -3.65391 2.04631
thorax 0.845053 -1.82064 -1.39493
lowerneck 7.42933 11.5984 9.74347
upperneck -12.5705 15.588 -9.56974
head -3.40811 7.7564 -5.03888
rclavicle 1.38901e-014 7.35503e-015
rhumerus -36.6727 28.1371 -99.7904
rradius 78.4169
rwrist 8.00865
rhand -31.4741 -9.73964
rfingers 7.12502
rthumb -4.7409 -39.6666
lclavicle 1.38901e-014 7.35503e-015
lhumerus -40.9115 -4.69726 91.6125
lradius 37.5159
lwrist 12.4766
lhand -42.267 -13.3331
lfingers 7.12502
lthumb -15.1523 16.0921
rfemur -20.8495 2.41849 32.3261
rtibia 32.9371
rfoot -13.8685 -11.4299
rtoes 4.28956
lfemur -6.94934 11.2348 -9.64114
ltibia 64.4309
lfoot 22.4925 3.98331
ltoes -0.275647
611
root 31.8731 16.191 -11.6811 -181.968 -32.5345 -173.577
lowerback 3.17553 -2.60349 6.631
upperback 2.77506 -3.51737 2.16716
thorax 0.835966 -1.75528 -1.38278
lowerneck 7.44758 11.5274 9.75167
upperneck -12.5933 15.489 -9.6158
head -3.42255 7.70996 -5.05609
rclavicle -8.32411e-015 6.24184e-014
rhumerus -36.3939 28.0703 -99.5631
rradius 78.3089
rwrist 8.11947
rhand -31.3148 -9.56755
rfingers 7.12502
rthumb -4.58716 -39.4979
lclavicle -8.32411e-015 6.24184e-014
lhumerus -41.1211 -4.96909 91.7067
lradius 38.1584
lwrist 12.9256
lhand -42.0339 -12.3759
lfingers 7.12502
lthumb -14.9278 17.0662
rfemur -20.183 2.2741 32.709
rtibia 32.882
rfoot -14.3802 -11.4618
rtoes 4.27175
lfemur -8.61699 11.0591 -9.24229
ltibia 66.3606
lfoot 20.8043 3.94803
ltoes -0.401338
612
root 31.8242 16.1798 -11.7675 -182.331 -32.6138 -173.264
lowerback 3.3654 -2.49511 6.7876
upperback 2.86965 -3.37282 2.28264
thorax 0.838201 -1.68606 -1.3491
lowerneck 7.47125 11.4506 9.76442
upperneck -12.6095 15.3836 -9.66436
head -3.43601 7.66071 -5.0747
rclavicle 8.57756e-014 -2.66371e-014
rhumerus -36.1272 28.0038 -99.333
rradius 78.1918
rwrist 8.21537
rhand -31.1546 -9.36837
rfingers 7.12502
rthumb -4.43245 -39.302
lclavicle 8.57756e-014 -2.66371e-014
lhumerus -41.3197 -5.18379 91.7659
lradius 38.8387
lwrist 13.3927
lhand -41.6763 -11.465
lfingers 7.12502
lthumb -14.5833 18.0023
rfemur -19.5638 2.17518 33.051
rtibia 32.8607
rfoot -14.8734 -11.526
rtoes 4.22952
lfemur -10.313 10.9145 -8.90165
ltibia 68.1728
lfoot 19.002 3.94092
ltoes -0.507494
613
root 31.7761 16.1684 -11.8526 -182.664 -32.6906 -172.976
lowerback 3.53736 -2.38217 6.91497
upperback 2.96037 -3.22344 2.39583
thorax 0.848329 -1.61451 -1.303
lowerneck 7.49147 11.3733 9.7752
upperneck -12.6133 15.2776 -9.71179
head -3.44557 7.61155 -5.09181
rclavicle 8.36386e-014 -5.4467e-014
rhumerus -35.8737 27.9335 -99.0985
rradius 78.071
rwrist 8.28669
rhand -30.9726 -9.14774
rfingers 7.12502
rthumb -4.25666 -39.085
lclavicle 8.36386e-014 -5.4467e-014
lhumerus -41.5001 -5.34798 91.7907
lradius 39.551
lwrist 13.8873
lhand -41.1817 -10.556
lfingers 7.12502
lthumb -14.1067 18.9452
rfemur -18.9925 2.10615 33.3698
rtibia 32.8775
rfoot -15.3525 -11.6115
rtoes 4.18727
lfemur -12.0377 10.8019 -8.60418
ltibia 69.8674
lfoot 17.135 3.93871
ltoes -0.701395
614
root 31.7284 16.1564 -11.9361 -182.983 -32.7652 -172.705
lowerback 3.69892 -2.26351 7.02733
upperback 3.0489 -3.06723 2.50713
thorax 0.863211 -1.5396 -1.25159
lowerneck 7.51029 11.2959 9.78181
upperneck -12.6042 15.1721 -9.75458
head -3.45178 7.56292 -5.10622
rclavicle 7.51903e-014 -2.32578e-014
rhumerus -35.6315 27.8486 -98.8598
rradius 77.9436
rwrist 8.32881
rhand -30.7994 -8.96543
rfingers 7.12502
rthumb -4.08942 -38.9059
lclavicle 7.51903e-014 -2.32578e-014
lhumerus -41.6635 -5.46294 91.7809
lradius 40.2951
lwrist 14.4313
lhand -40.5155 -9.63619
lfingers 7.12502
lthumb -13.4647 19.9086
rfemur -18.4593 2.049 33.6732
rtibia 32.9311
rfoot -15.8211 -11.7071
rtoes 4.14048
lfemur -13.7793 10.7223 -8.34306
ltibia 71.4406
lfoot 15.2557 3.97027
ltoes -0.938005
615
root 31.6805 16.1436 -12.0179 -183.295 -32.8423 -172.441
lowerback 3.86166 -2.14164 7.13655
upperback 3.1321 -2.90599 2.61727
thorax 0.872431 -1.46247 -1.19998
lowerneck 7.52674 11.2184 9.78827
upperneck -12.5781 15.0678 -9.79248
head -3.45288 7.51516 -5.11813
rclavicle 3.69739e-014 -1.13307e-014
rhumerus -35.4092 27.7499 -98.6205
rradius 77.8136
rwrist 8.33556
rhand -30.7244 -8.92435
rfingers 7.12502
rthumb -4.017 -38.8662
lclavicle 3.69739e-014 -1.13307e-014
lhumerus -41.8141 -5.5547 91.7469
lradius 41.0606
lwrist 15.0432
lhand -39.6923 -8.70356
lfingers 7.12502
lthumb -12.6712 20.892
rfemur -17.9518 1.97982 33.9672
rtibia 33.0124
rfoot -16.2798 -11.8029
rtoes 4.08107
lfemur -15.5267 10.6693 -8.11456
ltibia 72.8847
lfoot 13.4327 4.03786
ltoes -1.24483
616
root 31.6322 16.1299 -12.0983 -183.616 -32.9328 -172.172
lowerback 4.02411 -2.01518 7.2659
upperback 3.21555 -2.738 2.72217
thorax 0.881662 -1.38168 -1.1655
lowerneck 7.52989 11.1375 9.79838
upperneck -12.534 14.96 -9.81899
head -3.44755 7.46504 -5.12537
rclavicle -1.14301e-015 -7.55382e-015
rhumerus -35.2005 27.6163 -98.3782
rradius 77.6851
rwrist 8.30673
rhand -30.6373 -8.88929
rfingers 7.12502
rthumb -3.93288 -38.8327
lclavicle -1.14301e-015 -7.55382e-015
lhumerus -41.9441 -5.66417 91.6988
lradius 41.8241
lwrist 15.6996
lhand -38.7746 -7.80958
lfingers 7.12502
lthumb -11.7863 21.8388
rfemur -17.4546 1.88479 34.261
rtibia 33.1087
rfoot -16.7384 -11.8972
rtoes 4.01778
lfemur -17.2674 10.6332 -7.90932
ltibia 74.1913
lfoot 11.7091 4.14054
ltoes -1.67284
617
root 31.5829 16.1157 -12.1775 -183.942 -33.0463 -171.907
lowerback 4.18896 -1.88657 7.40807
upperback 3.29517 -2.56558 2.81962
thorax 0.885353 -1.2985 -1.14613
lowerneck 7.52356 11.0485 9.80955
upperneck -12.4734 14.843 -9.83069
head -3.43786 7.40966 -5.12697
rclavicle -5.61567e-015 5.48646e-014
rhumerus -35.0161 27.4446 -98.1354
rradius 77.5635
rwrist 8.24882
rhand -30.558 -8.86364
rfingers 7.12502
rthumb -3.85627 -38.8085
lclavicle -5.61567e-015 5.48646e-014
lhumerus -42.0662 -5.82617 91.6634
lradius 42.5604
lwrist 16.3367
lhand -37.8939 -7.00194
lfingers 7.12502
lthumb -10.9369 22.6932
rfemur -16.9556 1.75112 34.5428
rtibia 33.2058
rfoot -17.1996 -11.9934
rtoes 3.93906
lfemur -18.9912 10.5983 -7.74311
ltibia 75.3505
lfoot 10.0782 4.32483
ltoes -2.00784
618
root 31.5329 16.1008 -12.2559 -184.267 -33.1874 -171.647
lowerback 4.34987 -1.76051 7.55781
upperback 3.37089 -2.39558 2.91013
thorax 0.886841 -1.21626 -1.13844
lowerneck 7.51089 10.9537 9.81854
upperneck -12.4021 14.7196 -9.82646
head -3.42615 7.35037 -5.12266
rclavicle -3.61788e-014 2.54444e-014
rhumerus -34.857 27.2422 -97.8957
rradius 77.4495
rwrist 8.17109
rhand -30.4883 -8.83459
rfingers 7.12502
rthumb -3.78898 -38.7807
lclavicle -3.61788e-014 2.54444e-014
lhumerus -42.1836 -6.05204 91.6503
lradius 43.255
lwrist 16.9182
lhand -37.1349 -6.32966
lfingers 7.12502
lthumb -10.2048 23.4028
rfemur -16.4502 1.59541 34.8124
rtibia 33.2928
rfoot -17.67 -12.1122
rtoes 3.85071
lfemur -20.6964 10.5629 -7.61833
ltibia 76.3595
lfoot 8.53379 4.56704
ltoes -2.29453
619
root 31.4823 16.0852 -12.3341 -184.591 -33.3616 -171.39
lowerback 4.49513 -1.6357 7.71729
upperback 3.44528 -2.22749 2.99228
thorax 0.895379 -1.13426 -1.14554
lowerneck 7.48557 10.8495 9.832
upperneck -12.3221 14.5842 -9.81118
head -3.41156 7.28419 -5.11446
rclavicle 3.19546e-014 4.29375e-014
rhumerus -34.7132 27.0005 -97.6578
rradius 77.3409
rwrist 8.08325
rhand -30.4266 -8.79736
rfingers 7.12502
rthumb -3.7294 -38.7445
lclavicle 3.19546e-014 4.29375e-014
lhumerus -42.2921 -6.37051 91.6706
lradius 43.8973
lwrist 17.3997
lhand -36.5696 -5.80429
lfingers 7.12502
lthumb -9.65938 23.9542
rfemur -15.9375 1.42953 35.075
rtibia 33.3628
rfoot -18.1558 -12.2709
rtoes 3.76455
lfemur -22.3808 10.5247 -7.53358
ltibia 77.2177
lfoot 7.05951 4.83768
ltoes -2.56488
